  0
SECTION
  2
HEADER
  9
$ACADVER
  1
AC1015
  9
$ACADMAINTVER
 70
6
  9
$DWGCODEPAGE
  3
ANSI_1252
  9
$INSBASE
 10
0.0
 20
0.0
 30
0.0
  9
$EXTMIN
 10
1e+20
 20
1e+20
 30
1e+20
  9
$EXTMAX
 10
-1e+20
 20
-1e+20
 30
-1e+20
  9
$LIMMIN
 10
0.0
 20
0.0
  9
$LIMMAX
 10
420.0
 20
297.0
  9
$ORTHOMODE
 70
0
  9
$REGENMODE
 70
1
  9
$FILLMODE
 70
1
  9
$QTEXTMODE
 70
0
  9
$MIRRTEXT
 70
1
  9
$LTSCALE
 40
1.0
  9
$ATTMODE
 70
1
  9
$TEXTSIZE
 40
2.5
  9
$TRACEWID
 40
1.0
  9
$TEXTSTYLE
  7
OpenSans
  9
$CLAYER
  8
0
  9
$CELTYPE
  6
ByLayer
  9
$CECOLOR
 62
256
  9
$CELTSCALE
 40
1.0
  9
$DISPSILH
 70
0
  9
$DIMSCALE
 40
1.0
  9
$DIMASZ
 40
0.175
  9
$DIMEXO
 40
0.125
  9
$DIMDLI
 40
3.75
  9
$DIMRND
 40
0.0
  9
$DIMDLE
 40
0.0
  9
$DIMEXE
 40
0.375
  9
$DIMTP
 40
0.0
  9
$DIMTM
 40
0.0
  9
$DIMTXT
 40
0.25
  9
$DIMCEN
 40
2.5
  9
$DIMTSZ
 40
0.0
  9
$DIMTOL
 70
0
  9
$DIMLIM
 70
0
  9
$DIMTIH
 70
0
  9
$DIMTOH
 70
0
  9
$DIMSE1
 70
0
  9
$DIMSE2
 70
0
  9
$DIMTAD
 70
1
  9
$DIMZIN
 70
12
  9
$DIMBLK
  1
ARCHTICK
  9
$DIMASO
 70
1
  9
$DIMSHO
 70
1
  9
$DIMPOST
  1

  9
$DIMAPOST
  1

  9
$DIMALT
 70
0
  9
$DIMALTD
 70
3
  9
$DIMALTF
 40
0.03937007874
  9
$DIMLFAC
 40
100.0
  9
$DIMTOFL
 70
1
  9
$DIMTVP
 40
0.0
  9
$DIMTIX
 70
0
  9
$DIMSOXD
 70
0
  9
$DIMSAH
 70
0
  9
$DIMBLK1
  1

  9
$DIMBLK2
  1

  9
$DIMSTYLE
  2
EZDXF
  9
$DIMCLRD
 70
0
  9
$DIMCLRE
 70
0
  9
$DIMCLRT
 70
0
  9
$DIMTFAC
 40
0.5
  9
$DIMGAP
 40
0.1
  9
$DIMJUST
 70
0
  9
$DIMSD1
 70
0
  9
$DIMSD2
 70
0
  9
$DIMTOLJ
 70
0
  9
$DIMTZIN
 70
8
  9
$DIMALTZ
 70
0
  9
$DIMALTTZ
 70
0
  9
$DIMUPT
 70
1
  9
$DIMDEC
 70
2
  9
$DIMTDEC
 70
2
  9
$DIMALTU
 70
2
  9
$DIMALTTD
 70
3
  9
$DIMTXSTY
  7
OpenSansCondensed-Light
  9
$DIMAUNIT
 70
0
  9
$DIMADEC
 70
2
  9
$DIMALTRND
 40
0.0
  9
$DIMAZIN
 70
3
  9
$DIMDSEP
 70
46
  9
$DIMATFIT
 70
3
  9
$DIMFRAC
 70
0
  9
$DIMLDRBLK
  1

  9
$DIMLUNIT
 70
2
  9
$DIMLWD
 70
-2
  9
$DIMLWE
 70
-2
  9
$DIMTMOVE
 70
2
  9
$LUNITS
 70
2
  9
$LUPREC
 70
4
  9
$SKETCHINC
 40
1.0
  9
$FILLETRAD
 40
10.0
  9
$AUNITS
 70
0
  9
$AUPREC
 70
2
  9
$MENU
  1
.
  9
$ELEVATION
 40
0.0
  9
$PELEVATION
 40
0.0
  9
$THICKNESS
 40
0.0
  9
$LIMCHECK
 70
0
  9
$CHAMFERA
 40
0.0
  9
$CHAMFERB
 40
0.0
  9
$CHAMFERC
 40
0.0
  9
$CHAMFERD
 40
0.0
  9
$SKPOLY
 70
0
  9
$TDCREATE
 40
2461271.9075694443
  9
$TDUCREATE
 40
2458532.153996898
  9
$TDUPDATE
 40
2461271.9075694443
  9
$TDUUPDATE
 40
2458532.1544311
  9
$TDINDWG
 40
0.0
  9
$TDUSRTIMER
 40
0.0
  9
$USRTIMER
 70
1
  9
$ANGBASE
 50
0.0
  9
$ANGDIR
 70
0
  9
$PDMODE
 70
0
  9
$PDSIZE
 40
0.0
  9
$PLINEWID
 40
0.0
  9
$SPLFRAME
 70
0
  9
$SPLINETYPE
 70
6
  9
$SPLINESEGS
 70
8
  9
$HANDSEED
  5
106
  9
$SURFTAB1
 70
6
  9
$SURFTAB2
 70
6
  9
$SURFTYPE
 70
6
  9
$SURFU
 70
6
  9
$SURFV
 70
6
  9
$UCSBASE
  2

  9
$UCSNAME
  2

  9
$UCSORG
 10
0.0
 20
0.0
 30
0.0
  9
$UCSXDIR
 10
1.0
 20
0.0
 30
0.0
  9
$UCSYDIR
 10
0.0
 20
1.0
 30
0.0
  9
$UCSORTHOREF
  2

  9
$UCSORTHOVIEW
 70
0
  9
$UCSORGTOP
 10
0.0
 20
0.0
 30
0.0
  9
$UCSORGBOTTOM
 10
0.0
 20
0.0
 30
0.0
  9
$UCSORGLEFT
 10
0.0
 20
0.0
 30
0.0
  9
$UCSORGRIGHT
 10
0.0
 20
0.0
 30
0.0
  9
$UCSORGFRONT
 10
0.0
 20
0.0
 30
0.0
  9
$UCSORGBACK
 10
0.0
 20
0.0
 30
0.0
  9
$PUCSBASE
  2

  9
$PUCSNAME
  2

  9
$PUCSORG
 10
0.0
 20
0.0
 30
0.0
  9
$PUCSXDIR
 10
1.0
 20
0.0
 30
0.0
  9
$PUCSYDIR
 10
0.0
 20
1.0
 30
0.0
  9
$PUCSORTHOREF
  2

  9
$PUCSORTHOVIEW
 70
0
  9
$PUCSORGTOP
 10
0.0
 20
0.0
 30
0.0
  9
$PUCSORGBOTTOM
 10
0.0
 20
0.0
 30
0.0
  9
$PUCSORGLEFT
 10
0.0
 20
0.0
 30
0.0
  9
$PUCSORGRIGHT
 10
0.0
 20
0.0
 30
0.0
  9
$PUCSORGFRONT
 10
0.0
 20
0.0
 30
0.0
  9
$PUCSORGBACK
 10
0.0
 20
0.0
 30
0.0
  9
$USERI1
 70
0
  9
$USERI2
 70
0
  9
$USERI3
 70
0
  9
$USERI4
 70
0
  9
$USERI5
 70
0
  9
$USERR1
 40
0.0
  9
$USERR2
 40
0.0
  9
$USERR3
 40
0.0
  9
$USERR4
 40
0.0
  9
$USERR5
 40
0.0
  9
$WORLDVIEW
 70
1
  9
$SHADEDGE
 70
3
  9
$SHADEDIF
 70
70
  9
$TILEMODE
 70
1
  9
$MAXACTVP
 70
64
  9
$PINSBASE
 10
0.0
 20
0.0
 30
0.0
  9
$PLIMCHECK
 70
0
  9
$PEXTMIN
 10
1e+20
 20
1e+20
 30
1e+20
  9
$PEXTMAX
 10
-1e+20
 20
-1e+20
 30
-1e+20
  9
$PLIMMIN
 10
0.0
 20
0.0
  9
$PLIMMAX
 10
420.0
 20
297.0
  9
$UNITMODE
 70
0
  9
$VISRETAIN
 70
1
  9
$PLINEGEN
 70
0
  9
$PSLTSCALE
 70
1
  9
$TREEDEPTH
 70
3020
  9
$CMLSTYLE
  2
Standard
  9
$CMLJUST
 70
0
  9
$CMLSCALE
 40
20.0
  9
$PROXYGRAPHICS
 70
1
  9
$MEASUREMENT
 70
1
  9
$CELWEIGHT
370
-1
  9
$ENDCAPS
280
0
  9
$JOINSTYLE
280
0
  9
$LWDISPLAY
290
0
  9
$INSUNITS
 70
6
  9
$HYPERLINKBASE
  1

  9
$STYLESHEET
  1

  9
$XEDIT
290
1
  9
$CEPSNTYPE
380
0
  9
$PSTYLEMODE
290
1
  9
$FINGERPRINTGUID
  2
{02C8BDA3-9CC0-4363-82DE-FFDC7464D55B}
  9
$VERSIONGUID
  2
{2552D544-99C2-4D38-BB3F-B25D3378A46D}
  9
$EXTNAMES
290
1
  9
$PSVPSCALE
 40
0.0
  9
$OLESTARTUP
290
0
  0
ENDSEC
  0
SECTION
  2
CLASSES
  0
CLASS
  1
ACDBDICTIONARYWDFLT
  2
AcDbDictionaryWithDefault
  3
ObjectDBX Classes
 90
0
280
0
281
0
  0
CLASS
  1
SUN
  2
AcDbSun
  3
SCENEOE
 90
1153
280
0
281
0
  0
CLASS
  1
VISUALSTYLE
  2
AcDbVisualStyle
  3
ObjectDBX Classes
 90
4095
280
0
281
0
  0
CLASS
  1
MATERIAL
  2
AcDbMaterial
  3
ObjectDBX Classes
 90
1153
280
0
281
0
  0
CLASS
  1
SCALE
  2
AcDbScale
  3
ObjectDBX Classes
 90
1153
280
0
281
0
  0
CLASS
  1
TABLESTYLE
  2
AcDbTableStyle
  3
ObjectDBX Classes
 90
4095
280
0
281
0
  0
CLASS
  1
MLEADERSTYLE
  2
AcDbMLeaderStyle
  3
ACDB_MLEADERSTYLE_CLASS
 90
4095
280
0
281
0
  0
CLASS
  1
DICTIONARYVAR
  2
AcDbDictionaryVar
  3
ObjectDBX Classes
 90
0
280
0
281
0
  0
CLASS
  1
CELLSTYLEMAP
  2
AcDbCellStyleMap
  3
ObjectDBX Classes
 90
1152
280
0
281
0
  0
CLASS
  1
MENTALRAYRENDERSETTINGS
  2
AcDbMentalRayRenderSettings
  3
SCENEOE
 90
1024
280
0
281
0
  0
CLASS
  1
ACDBDETAILVIEWSTYLE
  2
AcDbDetailViewStyle
  3
ObjectDBX Classes
 90
1025
280
0
281
0
  0
CLASS
  1
ACDBSECTIONVIEWSTYLE
  2
AcDbSectionViewStyle
  3
ObjectDBX Classes
 90
1025
280
0
281
0
  0
CLASS
  1
RASTERVARIABLES
  2
AcDbRasterVariables
  3
ISM
 90
0
280
0
281
0
  0
CLASS
  1
ACDBPLACEHOLDER
  2
AcDbPlaceHolder
  3
ObjectDBX Classes
 90
0
280
0
281
0
  0
CLASS
  1
LAYOUT
  2
AcDbLayout
  3
ObjectDBX Classes
 90
0
280
0
281
0
  0
ENDSEC
  0
SECTION
  2
TABLES
  0
TABLE
  2
VPORT
  5
8
330
0
100
AcDbSymbolTable
 70
1
  0
VPORT
  5
23
330
8
100
AcDbSymbolTableRecord
100
AcDbViewportTableRecord
  2
*Active
 70
0
 10
0.0
 20
0.0
 11
1.0
 21
1.0
 12
0.0
 22
0.0
 13
0.0
 23
0.0
 14
0.5
 24
0.5
 15
0.5
 25
0.5
 16
0.0
 26
0.0
 36
1.0
 17
0.0
 27
0.0
 37
0.0
 40
1000.0
 41
1.34
 42
50.0
 43
0.0
 44
0.0
 50
0.0
 51
0.0
 71
0
 72
1000
 73
1
 74
3
 75
0
 76
0
 77
0
 78
0
281
0
 65
0
146
0.0
  0
ENDTAB
  0
TABLE
  2
LTYPE
  5
2
330
0
100
AcDbSymbolTable
 70
22
  0
LTYPE
  5
24
330
2
100
AcDbSymbolTableRecord
100
AcDbLinetypeTableRecord
  2
ByBlock
 70
0
  3

 72
65
 73
0
 40
0.0
  0
LTYPE
  5
25
330
2
100
AcDbSymbolTableRecord
100
AcDbLinetypeTableRecord
  2
ByLayer
 70
0
  3

 72
65
 73
0
 40
0.0
  0
LTYPE
  5
26
330
2
100
AcDbSymbolTableRecord
100
AcDbLinetypeTableRecord
  2
Continuous
 70
0
  3

 72
65
 73
0
 40
0.0
  0
LTYPE
  5
2F
330
2
100
AcDbSymbolTableRecord
100
AcDbLinetypeTableRecord
  2
CENTER
 70
0
  3
Center ____ _ ____ _ ____ _ ____ _ ____ _ ____
 72
65
 73
4
 40
5.08
 49
3.175
 74
0
 49
-0.635
 74
0
 49
0.635
 74
0
 49
-0.635
 74
0
  0
LTYPE
  5
30
330
2
100
AcDbSymbolTableRecord
100
AcDbLinetypeTableRecord
  2
CENTERX2
 70
0
  3
Center (2x) ________  __  ________  __  ________
 72
65
 73
4
 40
8.89
 49
6.35
 74
0
 49
-0.635
 74
0
 49
1.27
 74
0
 49
-0.635
 74
0
  0
LTYPE
  5
31
330
2
100
AcDbSymbolTableRecord
100
AcDbLinetypeTableRecord
  2
CENTER2
 70
0
  3
Center (.5x) ____ _ ____ _ ____ _ ____ _ ____
 72
65
 73
4
 40
2.54
 49
1.587
 74
0
 49
-0.318
 74
0
 49
0.318
 74
0
 49
-0.318
 74
0
  0
LTYPE
  5
32
330
2
100
AcDbSymbolTableRecord
100
AcDbLinetypeTableRecord
  2
DASHED
 70
0
  3
Dashed __ __ __ __ __ __ __ __ __ __ __ __ __ _
 72
65
 73
2
 40
1.524
 49
1.27
 74
0
 49
-0.254
 74
0
  0
LTYPE
  5
33
330
2
100
AcDbSymbolTableRecord
100
AcDbLinetypeTableRecord
  2
DASHEDX2
 70
0
  3
Dashed (2x) ____  ____  ____  ____  ____  ____
 72
65
 73
2
 40
3.048
 49
2.54
 74
0
 49
-0.508
 74
0
  0
LTYPE
  5
34
330
2
100
AcDbSymbolTableRecord
100
AcDbLinetypeTableRecord
  2
DASHED2
 70
0
  3
Dashed (.5x) _ _ _ _ _ _ _ _ _ _ _ _ _ _
 72
65
 73
2
 40
0.762
 49
0.635
 74
0
 49
-0.127
 74
0
  0
LTYPE
  5
35
330
2
100
AcDbSymbolTableRecord
100
AcDbLinetypeTableRecord
  2
PHANTOM
 70
0
  3
Phantom ______  __  __  ______  __  __  ______
 72
65
 73
6
 40
6.35
 49
3.175
 74
0
 49
-0.635
 74
0
 49
0.635
 74
0
 49
-0.635
 74
0
 49
0.635
 74
0
 49
-0.635
 74
0
  0
LTYPE
  5
36
330
2
100
AcDbSymbolTableRecord
100
AcDbLinetypeTableRecord
  2
PHANTOMX2
 70
0
  3
Phantom (2x)____________    ____    ____    ____________
 72
65
 73
6
 40
10.795
 49
6.35
 74
0
 49
-0.635
 74
0
 49
1.27
 74
0
 49
-0.635
 74
0
 49
1.27
 74
0
 49
-0.635
 74
0
  0
LTYPE
  5
37
330
2
100
AcDbSymbolTableRecord
100
AcDbLinetypeTableRecord
  2
PHANTOM2
 70
0
  3
Phantom (.5x) ___ _ _ ___ _ _ ___ _ _ ___ _ _ ___
 72
65
 73
6
 40
3.175
 49
1.587
 74
0
 49
-0.318
 74
0
 49
0.318
 74
0
 49
-0.318
 74
0
 49
0.318
 74
0
 49
-0.318
 74
0
  0
LTYPE
  5
38
330
2
100
AcDbSymbolTableRecord
100
AcDbLinetypeTableRecord
  2
DASHDOT
 70
0
  3
Dash dot __ . __ . __ . __ . __ . __ . __ . __
 72
65
 73
4
 40
3.556
 49
2.54
 74
0
 49
-0.508
 74
0
 49
0.0
 74
0
 49
-0.508
 74
0
  0
LTYPE
  5
39
330
2
100
AcDbSymbolTableRecord
100
AcDbLinetypeTableRecord
  2
DASHDOTX2
 70
0
  3
Dash dot (2x) ____  .  ____  .  ____  .  ____
 72
65
 73
4
 40
6.096
 49
5.08
 74
0
 49
-0.508
 74
0
 49
0.0
 74
0
 49
-0.508
 74
0
  0
LTYPE
  5
3A
330
2
100
AcDbSymbolTableRecord
100
AcDbLinetypeTableRecord
  2
DASHDOT2
 70
0
  3
Dash dot (.5x) _ . _ . _ . _ . _ . _ . _ . _
 72
65
 73
4
 40
1.778
 49
1.27
 74
0
 49
-0.254
 74
0
 49
0.0
 74
0
 49
-0.254
 74
0
  0
LTYPE
  5
3B
330
2
100
AcDbSymbolTableRecord
100
AcDbLinetypeTableRecord
  2
DOT
 70
0
  3
Dot .  .  .  .  .  .  .  .  .  .  .  .  .  .  .  .
 72
65
 73
2
 40
0.508
 49
0.0
 74
0
 49
-0.508
 74
0
  0
LTYPE
  5
3C
330
2
100
AcDbSymbolTableRecord
100
AcDbLinetypeTableRecord
  2
DOTX2
 70
0
  3
Dot (2x) .    .    .    .    .    .    .    . 
 72
65
 73
2
 40
1.016
 49
0.0
 74
0
 49
-1.016
 74
0
  0
LTYPE
  5
3D
330
2
100
AcDbSymbolTableRecord
100
AcDbLinetypeTableRecord
  2
DOT2
 70
0
  3
Dot (.5) . . . . . . . . . . . . . . . . . . . 
 72
65
 73
2
 40
0.254
 49
0.0
 74
0
 49
-0.254
 74
0
  0
LTYPE
  5
3E
330
2
100
AcDbSymbolTableRecord
100
AcDbLinetypeTableRecord
  2
DIVIDE
 70
0
  3
Divide __ . . __ . . __ . . __ . . __ . . __
 72
65
 73
6
 40
4.064
 49
2.54
 74
0
 49
-0.508
 74
0
 49
0.0
 74
0
 49
-0.508
 74
0
 49
0.0
 74
0
 49
-0.508
 74
0
  0
LTYPE
  5
3F
330
2
100
AcDbSymbolTableRecord
100
AcDbLinetypeTableRecord
  2
DIVIDEX2
 70
0
  3
Divide (2x) ____  . .  ____  . .  ____  . .  ____
 72
65
 73
6
 40
6.604
 49
5.08
 74
0
 49
-0.508
 74
0
 49
0.0
 74
0
 49
-0.508
 74
0
 49
0.0
 74
0
 49
-0.508
 74
0
  0
LTYPE
  5
40
330
2
100
AcDbSymbolTableRecord
100
AcDbLinetypeTableRecord
  2
DIVIDE2
 70
0
  3
Divide(.5x) _ . _ . _ . _ . _ . _ . _ . _
 72
65
 73
6
 40
2.032
 49
1.27
 74
0
 49
-0.254
 74
0
 49
0.0
 74
0
 49
-0.254
 74
0
 49
0.0
 74
0
 49
-0.254
 74
0
  0
LTYPE
  5
8A
330
2
100
AcDbSymbolTableRecord
100
AcDbLinetypeTableRecord
  2
ACAD_ISO02W100
 70
0
  3
ISO dash __ __ __ __ __ __ __ __ __ __ __ __ __
 72
65
 73
2
 40
15.0
 49
12.0
 74
0
 49
-3.0
 74
0
  0
ENDTAB
  0
TABLE
  2
LAYER
  5
1
330
0
100
AcDbSymbolTable
 70
23
  0
LAYER
  5
27
330
1
100
AcDbSymbolTableRecord
100
AcDbLayerTableRecord
  2
0
 70
0
 62
7
  6
Continuous
370
-3
390
13
  0
LAYER
  5
28
330
1
100
AcDbSymbolTableRecord
100
AcDbLayerTableRecord
  2
Defpoints
 70
0
 62
7
  6
Continuous
290
0
370
-3
390
13
  0
LAYER
  5
EE
330
1
100
AcDbSymbolTableRecord
100
AcDbLayerTableRecord
  2
QUADRA
 70
0
 62
8
  6
Continuous
370
-3
390
13
  0
LAYER
  5
EF
330
1
100
AcDbSymbolTableRecord
100
AcDbLayerTableRecord
  2
MEIOFIO
 70
0
 62
254
  6
ACAD_ISO02W100
370
-3
390
13
  0
LAYER
  5
F0
330
1
100
AcDbSymbolTableRecord
100
AcDbLayerTableRecord
  2
LIMITE
 70
0
 62
5
  6
PHANTOMX2
370
-3
390
13
  0
LAYER
  5
F1
330
1
100
AcDbSymbolTableRecord
100
AcDbLayerTableRecord
  2
LOGRADOURO
 70
0
 62
40
  6
Continuous
370
-3
390
13
  0
LAYER
  5
F2
330
1
100
AcDbSymbolTableRecord
100
AcDbLayerTableRecord
  2
SDU_RES
 70
0
 62
6
  6
Continuous
370
-3
390
13
  0
LAYER
  5
F3
330
1
100
AcDbSymbolTableRecord
100
AcDbLayerTableRecord
  2
SDU_COM
 70
0
 62
4
  6
Continuous
370
-3
390
13
  0
LAYER
  5
F4
330
1
100
AcDbSymbolTableRecord
100
AcDbLayerTableRecord
  2
SDU_ESP
 70
0
 62
3
  6
Continuous
370
-3
390
13
  0
LAYER
  5
F5
330
1
100
AcDbSymbolTableRecord
100
AcDbLayerTableRecord
  2
SDU_VAZ
 70
0
 62
3
  6
Continuous
370
-3
390
13
  0
LAYER
  5
F6
330
1
100
AcDbSymbolTableRecord
100
AcDbLayerTableRecord
  2
MDU_RES
 70
0
 62
2
  6
Continuous
370
-3
390
13
  0
LAYER
  5
F7
330
1
100
AcDbSymbolTableRecord
100
AcDbLayerTableRecord
  2
MDU_COM
 70
0
 62
5
  6
Continuous
370
-3
390
13
  0
LAYER
  5
F8
330
1
100
AcDbSymbolTableRecord
100
AcDbLayerTableRecord
  2
MDU_ESP
 70
0
 62
1
  6
Continuous
370
-3
390
13
  0
LAYER
  5
F9
330
1
100
AcDbSymbolTableRecord
100
AcDbLayerTableRecord
  2
CONT_SDU
 70
0
 62
30
  6
Continuous
370
-3
390
13
  0
LAYER
  5
FA
330
1
100
AcDbSymbolTableRecord
100
AcDbLayerTableRecord
  2
CONT_MDU
 70
0
 62
200
  6
Continuous
370
-3
390
13
  0
LAYER
  5
FB
330
1
100
AcDbSymbolTableRecord
100
AcDbLayerTableRecord
  2
POSTE
 70
0
 62
7
  6
Continuous
370
-3
390
13
  0
LAYER
  5
FC
330
1
100
AcDbSymbolTableRecord
100
AcDbLayerTableRecord
  2
DROP
 70
0
 62
30
  6
Continuous
370
-3
390
13
  0
LAYER
  5
FD
330
1
100
AcDbSymbolTableRecord
100
AcDbLayerTableRecord
  2
FLY_TAP
 70
0
 62
7
  6
Continuous
370
-3
390
13
  0
LAYER
  5
FE
330
1
100
AcDbSymbolTableRecord
100
AcDbLayerTableRecord
  2
DIV
 70
0
 62
5
  6
Continuous
370
-3
390
13
  0
LAYER
  5
FF
330
1
100
AcDbSymbolTableRecord
100
AcDbLayerTableRecord
  2
DIST
 70
0
 62
7
  6
Continuous
370
-3
390
13
  0
LAYER
  5
100
330
1
100
AcDbSymbolTableRecord
100
AcDbLayerTableRecord
  2
DISTLIN
 70
0
 62
7
  6
Continuous
370
-3
390
13
  0
LAYER
  5
101
330
1
100
AcDbSymbolTableRecord
100
AcDbLayerTableRecord
  2
SERVICO
 70
0
 62
5
  6
Continuous
370
-3
390
13
  0
LAYER
  5
102
330
1
100
AcDbSymbolTableRecord
100
AcDbLayerTableRecord
  2
ANOTACAO
 70
0
 62
1
  6
Continuous
370
-3
390
13
  0
ENDTAB
  0
TABLE
  2
STYLE
  5
5
330
0
100
AcDbSymbolTable
 70
28
  0
STYLE
  5
29
330
5
100
AcDbSymbolTableRecord
100
AcDbTextStyleTableRecord
  2
Standard
 70
0
 40
0.0
 41
1.0
 50
0.0
 71
0
 42
2.5
  3
txt
  4

  0
STYLE
  5
41
330
5
100
AcDbSymbolTableRecord
100
AcDbTextStyleTableRecord
  2
OpenSans-Light
 70
0
 40
0.0
 41
1.0
 50
0.0
 71
0
 42
2.5
  3
OpenSans-Light.ttf
  4

  0
STYLE
  5
42
330
5
100
AcDbSymbolTableRecord
100
AcDbTextStyleTableRecord
  2
OpenSans-Light-Italic
 70
0
 40
0.0
 41
1.0
 50
0.0
 71
0
 42
2.5
  3
OpenSans-LightItalic.ttf
  4

  0
STYLE
  5
43
330
5
100
AcDbSymbolTableRecord
100
AcDbTextStyleTableRecord
  2
OpenSans
 70
0
 40
0.0
 41
1.0
 50
0.0
 71
0
 42
2.5
  3
OpenSans-Regular.ttf
  4

  0
STYLE
  5
44
330
5
100
AcDbSymbolTableRecord
100
AcDbTextStyleTableRecord
  2
OpenSans-Italic
 70
0
 40
0.0
 41
1.0
 50
0.0
 71
0
 42
2.5
  3
OpenSans-Italic.ttf
  4

  0
STYLE
  5
45
330
5
100
AcDbSymbolTableRecord
100
AcDbTextStyleTableRecord
  2
OpenSans-SemiBold
 70
0
 40
0.0
 41
1.0
 50
0.0
 71
0
 42
2.5
  3
OpenSans-SemiBold.ttf
  4

  0
STYLE
  5
46
330
5
100
AcDbSymbolTableRecord
100
AcDbTextStyleTableRecord
  2
OpenSans-SemiBoldItalic
 70
0
 40
0.0
 41
1.0
 50
0.0
 71
0
 42
2.5
  3
OpenSans-SemiBoldItalic.ttf
  4

  0
STYLE
  5
47
330
5
100
AcDbSymbolTableRecord
100
AcDbTextStyleTableRecord
  2
OpenSans-Bold
 70
0
 40
0.0
 41
1.0
 50
0.0
 71
0
 42
2.5
  3
OpenSans-Bold.ttf
  4

  0
STYLE
  5
48
330
5
100
AcDbSymbolTableRecord
100
AcDbTextStyleTableRecord
  2
OpenSans-BoldItalic
 70
0
 40
0.0
 41
1.0
 50
0.0
 71
0
 42
2.5
  3
OpenSans-BoldItalic.ttf
  4

  0
STYLE
  5
49
330
5
100
AcDbSymbolTableRecord
100
AcDbTextStyleTableRecord
  2
OpenSans-ExtraBold
 70
0
 40
0.0
 41
1.0
 50
0.0
 71
0
 42
2.5
  3
OpenSans-ExtraBold.ttf
  4

  0
STYLE
  5
4A
330
5
100
AcDbSymbolTableRecord
100
AcDbTextStyleTableRecord
  2
OpenSans-ExtraBoldItalic
 70
0
 40
0.0
 41
1.0
 50
0.0
 71
0
 42
2.5
  3
OpenSans-ExtraBoldItalic.ttf
  4

  0
STYLE
  5
4B
330
5
100
AcDbSymbolTableRecord
100
AcDbTextStyleTableRecord
  2
OpenSansCondensed-Bold
 70
0
 40
0.0
 41
1.0
 50
0.0
 71
0
 42
2.5
  3
OpenSansCondensed-Bold.ttf
  4

  0
STYLE
  5
4C
330
5
100
AcDbSymbolTableRecord
100
AcDbTextStyleTableRecord
  2
OpenSansCondensed-Light
 70
0
 40
0.0
 41
1.0
 50
0.0
 71
0
 42
2.5
  3
OpenSansCondensed-Light.ttf
  4

  0
STYLE
  5
4D
330
5
100
AcDbSymbolTableRecord
100
AcDbTextStyleTableRecord
  2
OpenSansCondensed-Italic
 70
0
 40
0.0
 41
1.0
 50
0.0
 71
0
 42
2.5
  3
OpenSansCondensed-LightItalic.ttf
  4

  0
STYLE
  5
4E
330
5
100
AcDbSymbolTableRecord
100
AcDbTextStyleTableRecord
  2
LiberationSans
 70
0
 40
0.0
 41
1.0
 50
0.0
 71
0
 42
2.5
  3
LiberationSans-Regular.ttf
  4

  0
STYLE
  5
4F
330
5
100
AcDbSymbolTableRecord
100
AcDbTextStyleTableRecord
  2
LiberationSans-Bold
 70
0
 40
0.0
 41
1.0
 50
0.0
 71
0
 42
2.5
  3
LiberationSans-Bold.ttf
  4

  0
STYLE
  5
50
330
5
100
AcDbSymbolTableRecord
100
AcDbTextStyleTableRecord
  2
LiberationSans-BoldItalic
 70
0
 40
0.0
 41
1.0
 50
0.0
 71
0
 42
2.5
  3
LiberationSans-BoldItalic.ttf
  4

  0
STYLE
  5
51
330
5
100
AcDbSymbolTableRecord
100
AcDbTextStyleTableRecord
  2
LiberationSans-Italic
 70
0
 40
0.0
 41
1.0
 50
0.0
 71
0
 42
2.5
  3
LiberationSans-Italic.ttf
  4

  0
STYLE
  5
52
330
5
100
AcDbSymbolTableRecord
100
AcDbTextStyleTableRecord
  2
LiberationSerif
 70
0
 40
0.0
 41
1.0
 50
0.0
 71
0
 42
2.5
  3
LiberationSerif-Regular.ttf
  4

  0
STYLE
  5
53
330
5
100
AcDbSymbolTableRecord
100
AcDbTextStyleTableRecord
  2
LiberationSerif-Bold
 70
0
 40
0.0
 41
1.0
 50
0.0
 71
0
 42
2.5
  3
LiberationSerif-Bold.ttf
  4

  0
STYLE
  5
54
330
5
100
AcDbSymbolTableRecord
100
AcDbTextStyleTableRecord
  2
LiberationSerif-BoldItalic
 70
0
 40
0.0
 41
1.0
 50
0.0
 71
0
 42
2.5
  3
LiberationSerif-BoldItalic.ttf
  4

  0
STYLE
  5
55
330
5
100
AcDbSymbolTableRecord
100
AcDbTextStyleTableRecord
  2
LiberationSerif-Italic
 70
0
 40
0.0
 41
1.0
 50
0.0
 71
0
 42
2.5
  3
LiberationSerif-Italic.ttf
  4

  0
STYLE
  5
56
330
5
100
AcDbSymbolTableRecord
100
AcDbTextStyleTableRecord
  2
LiberationMono
 70
0
 40
0.0
 41
1.0
 50
0.0
 71
0
 42
2.5
  3
LiberationMono-Regular.ttf
  4

  0
STYLE
  5
57
330
5
100
AcDbSymbolTableRecord
100
AcDbTextStyleTableRecord
  2
LiberationMono-Bold
 70
0
 40
0.0
 41
1.0
 50
0.0
 71
0
 42
2.5
  3
LiberationMono-Bold.ttf
  4

  0
STYLE
  5
58
330
5
100
AcDbSymbolTableRecord
100
AcDbTextStyleTableRecord
  2
LiberationMono-BoldItalic
 70
0
 40
0.0
 41
1.0
 50
0.0
 71
0
 42
2.5
  3
LiberationMono-BoldItalic.ttf
  4

  0
STYLE
  5
59
330
5
100
AcDbSymbolTableRecord
100
AcDbTextStyleTableRecord
  2
LiberationMono-Italic
 70
0
 40
0.0
 41
1.0
 50
0.0
 71
0
 42
2.5
  3
LiberationMono-Italic.ttf
  4

  0
STYLE
  5
8B
330
5
100
AcDbSymbolTableRecord
100
AcDbTextStyleTableRecord
  2
Arial
 70
0
 40
0.0
 41
1.0
 50
0.0
 71
0
 42
2.5
  3
arial.ttf
  4

  0
STYLE
  5
8C
330
5
100
AcDbSymbolTableRecord
100
AcDbTextStyleTableRecord
  2
Romans
 70
0
 40
0.0
 41
1.0
 50
0.0
 71
0
 42
0.225
  3
romans.shx
  4

  0
ENDTAB
  0
TABLE
  2
VIEW
  5
7
330
0
100
AcDbSymbolTable
 70
0
  0
ENDTAB
  0
TABLE
  2
UCS
  5
6
330
0
100
AcDbSymbolTable
 70
0
  0
ENDTAB
  0
TABLE
  2
APPID
  5
3
330
0
100
AcDbSymbolTable
 70
3
  0
APPID
  5
2A
330
3
100
AcDbSymbolTableRecord
100
AcDbRegAppTableRecord
  2
ACAD
 70
0
  0
APPID
  5
103
330
3
100
AcDbSymbolTableRecord
100
AcDbRegAppTableRecord
  2
HATCHBACKGROUNDCOLOR
 70
0
  0
APPID
  5
104
330
3
100
AcDbSymbolTableRecord
100
AcDbRegAppTableRecord
  2
EZDXF
 70
0
  0
ENDTAB
  0
TABLE
  2
DIMSTYLE
  5
4
330
0
100
AcDbSymbolTable
 70
12
100
AcDbDimStyleTable
  0
DIMSTYLE
105
2B
330
4
100
AcDbSymbolTableRecord
100
AcDbDimStyleTableRecord
  2
Standard
 70
0
  3

  4

 40
1.0
 41
2.5
 42
0.625
 43
3.75
 44
1.25
 45
0.0
 46
0.0
 47
0.0
 48
0.0
140
2.5
141
2.5
142
0.0
143
0.03937007874
144
1.0
145
0.0
146
1.0
147
0.625
148
0.0
 71
0
 72
0
 73
0
 74
0
 75
0
 76
0
 77
1
 78
8
 79
3
170
0
171
3
172
1
173
0
174
0
175
0
176
0
177
0
178
0
179
2
271
2
272
2
273
2
274
3
275
0
276
0
277
2
278
44
279
0
280
0
281
0
282
0
283
0
284
8
285
0
286
0
288
0
289
3
371
-2
372
-2
  0
DIMSTYLE
105
73
330
4
100
AcDbSymbolTableRecord
100
AcDbDimStyleTableRecord
  2
EZDXF
 70
0
  3

  4

 40
1.0
 41
0.175
 42
0.125
 43
3.75
 44
0.375
 45
0.0
 46
0.0
 47
0.0
 48
0.0
140
0.25
141
2.5
142
0.0
143
0.03937007874
144
100.0
145
0.0
146
0.5
147
0.1
148
0.0
 71
0
 72
0
 73
0
 74
0
 75
0
 76
0
 77
1
 78
12
 79
3
170
0
171
3
172
1
173
0
174
0
175
0
176
0
177
0
178
0
179
2
271
2
272
2
273
2
274
3
275
0
276
0
277
2
278
46
279
2
280
0
281
0
282
0
283
0
284
8
285
0
286
0
288
1
289
3
340
4C
342
74
371
-2
372
-2
  0
DIMSTYLE
105
7C
330
4
100
AcDbSymbolTableRecord
100
AcDbDimStyleTableRecord
  2
EZ_M_100_H25_CM
 70
0
  3

  4

 40
1.0
 41
0.25
 42
0.125
 43
3.75
 44
0.375
 45
0.0
 46
0.0
 47
0.0
 48
0.0
140
0.25
141
2.5
142
0.125
143
0.03937007874
144
100.0
145
0.0
146
0.5
147
0.1
148
0.0
 71
0
 72
0
 73
0
 74
0
 75
0
 76
0
 77
1
 78
12
 79
3
170
0
171
3
172
1
173
0
174
0
175
0
176
0
177
0
178
0
179
2
271
2
272
2
273
2
274
3
275
0
276
0
277
2
278
46
279
2
280
0
281
0
282
0
283
0
284
8
285
0
286
0
288
1
289
3
340
4C
371
-2
372
-2
  0
DIMSTYLE
105
7D
330
4
100
AcDbSymbolTableRecord
100
AcDbDimStyleTableRecord
  2
EZ_M_50_H25_CM
 70
0
  3

  4

 40
1.0
 41
0.125
 42
0.0625
 43
3.75
 44
0.1875
 45
0.0
 46
0.0
 47
0.0
 48
0.0
140
0.125
141
2.5
142
0.0625
143
0.03937007874
144
100.0
145
0.0
146
0.5
147
0.05
148
0.0
 71
0
 72
0
 73
0
 74
0
 75
0
 76
0
 77
1
 78
12
 79
3
170
0
171
3
172
1
173
0
174
0
175
0
176
0
177
0
178
0
179
2
271
2
272
2
273
2
274
3
275
0
276
0
277
2
278
46
279
2
280
0
281
0
282
0
283
0
284
8
285
0
286
0
288
1
289
3
340
4C
371
-2
372
-2
  0
DIMSTYLE
105
7E
330
4
100
AcDbSymbolTableRecord
100
AcDbDimStyleTableRecord
  2
EZ_M_25_H25_CM
 70
0
  3

  4

 40
1.0
 41
0.0625
 42
0.03125
 43
3.75
 44
0.09375
 45
0.0
 46
0.0
 47
0.0
 48
0.0
140
0.0625
141
2.5
142
0.03125
143
0.03937007874
144
100.0
145
0.0
146
0.5
147
0.025
148
0.0
 71
0
 72
0
 73
0
 74
0
 75
0
 76
0
 77
1
 78
12
 79
3
170
0
171
3
172
1
173
0
174
0
175
0
176
0
177
0
178
0
179
2
271
2
272
2
273
2
274
3
275
0
276
0
277
2
278
46
279
2
280
0
281
0
282
0
283
0
284
8
285
0
286
0
288
1
289
3
340
4C
371
-2
372
-2
  0
DIMSTYLE
105
7F
330
4
100
AcDbSymbolTableRecord
100
AcDbDimStyleTableRecord
  2
EZ_M_20_H25_CM
 70
0
  3

  4

 40
1.0
 41
0.05
 42
0.025
 43
3.75
 44
0.07500000000000001
 45
0.0
 46
0.0
 47
0.0
 48
0.0
140
0.05
141
2.5
142
0.025
143
0.03937007874
144
100.0
145
0.0
146
0.5
147
0.020000000000000004
148
0.0
 71
0
 72
0
 73
0
 74
0
 75
0
 76
0
 77
1
 78
12
 79
3
170
0
171
3
172
1
173
0
174
0
175
0
176
0
177
0
178
0
179
2
271
2
272
2
273
2
274
3
275
0
276
0
277
2
278
46
279
2
280
0
281
0
282
0
283
0
284
8
285
0
286
0
288
1
289
3
340
4C
371
-2
372
-2
  0
DIMSTYLE
105
80
330
4
100
AcDbSymbolTableRecord
100
AcDbDimStyleTableRecord
  2
EZ_M_10_H25_CM
 70
0
  3

  4

 40
1.0
 41
0.025
 42
0.0125
 43
3.75
 44
0.037500000000000006
 45
0.0
 46
0.0
 47
0.0
 48
0.0
140
0.025
141
2.5
142
0.0125
143
0.03937007874
144
100.0
145
0.0
146
0.5
147
0.010000000000000002
148
0.0
 71
0
 72
0
 73
0
 74
0
 75
0
 76
0
 77
1
 78
12
 79
3
170
0
171
3
172
1
173
0
174
0
175
0
176
0
177
0
178
0
179
2
271
2
272
2
273
2
274
3
275
0
276
0
277
2
278
46
279
2
280
0
281
0
282
0
283
0
284
8
285
0
286
0
288
1
289
3
340
4C
371
-2
372
-2
  0
DIMSTYLE
105
81
330
4
100
AcDbSymbolTableRecord
100
AcDbDimStyleTableRecord
  2
EZ_M_5_H25_CM
 70
0
  3

  4

 40
1.0
 41
0.0125
 42
0.00625
 43
3.75
 44
0.018750000000000003
 45
0.0
 46
0.0
 47
0.0
 48
0.0
140
0.0125
141
2.5
142
0.00625
143
0.03937007874
144
100.0
145
0.0
146
0.5
147
0.005000000000000001
148
0.0
 71
0
 72
0
 73
0
 74
0
 75
0
 76
0
 77
1
 78
12
 79
3
170
0
171
3
172
1
173
0
174
0
175
0
176
0
177
0
178
0
179
2
271
2
272
2
273
2
274
3
275
0
276
0
277
2
278
46
279
2
280
0
281
0
282
0
283
0
284
8
285
0
286
0
288
1
289
3
340
4C
371
-2
372
-2
  0
DIMSTYLE
105
82
330
4
100
AcDbSymbolTableRecord
100
AcDbDimStyleTableRecord
  2
EZ_M_1_H25_CM
 70
0
  3

  4

 40
1.0
 41
0.0025
 42
0.00125
 43
3.75
 44
0.00375
 45
0.0
 46
0.0
 47
0.0
 48
0.0
140
0.0025
141
2.5
142
0.00125
143
0.03937007874
144
100.0
145
0.0
146
0.5
147
0.001
148
0.0
 71
0
 72
0
 73
0
 74
0
 75
0
 76
0
 77
1
 78
12
 79
3
170
0
171
3
172
1
173
0
174
0
175
0
176
0
177
0
178
0
179
2
271
2
272
2
273
2
274
3
275
0
276
0
277
2
278
46
279
2
280
0
281
0
282
0
283
0
284
8
285
0
286
0
288
1
289
3
340
4C
371
-2
372
-2
  0
DIMSTYLE
105
83
330
4
100
AcDbSymbolTableRecord
100
AcDbDimStyleTableRecord
  2
EZ_RADIUS
 70
0
  3

  4

 40
1.0
 41
0.25
 42
0.125
 43
3.75
 44
0.375
 45
0.0
 46
0.0
 47
0.0
 48
0.0
140
0.25
141
0.0
142
0.0
143
0.03937007874
144
100.0
145
0.0
146
0.5
147
0.1
148
0.0
 71
0
 72
0
 73
0
 74
0
 75
0
 76
0
 77
1
 78
12
 79
3
170
0
171
3
172
0
173
0
174
0
175
0
176
0
177
0
178
0
179
2
271
2
272
2
273
2
274
3
275
0
276
0
277
2
278
46
279
1
280
0
281
0
282
0
283
0
284
8
285
0
286
0
288
1
289
3
340
4C
342
84
371
-2
372
-2
  0
DIMSTYLE
105
88
330
4
100
AcDbSymbolTableRecord
100
AcDbDimStyleTableRecord
  2
EZ_RADIUS_INSIDE
 70
0
  3

  4

 40
1.0
 41
0.25
 42
0.125
 43
3.75
 44
0.375
 45
0.0
 46
0.0
 47
0.0
 48
0.0
140
0.25
141
0.0
142
0.0
143
0.03937007874
144
100.0
145
0.0
146
0.5
147
0.1
148
0.0
 71
0
 72
0
 73
0
 74
0
 75
0
 76
0
 77
0
 78
12
 79
3
170
0
171
3
172
0
173
0
174
1
175
0
176
0
177
0
178
0
179
2
271
2
272
2
273
2
274
3
275
0
276
0
277
2
278
46
279
0
280
0
281
0
282
0
283
0
284
8
285
0
286
0
288
1
289
0
340
4C
342
84
371
-2
372
-2
  0
DIMSTYLE
105
89
330
4
100
AcDbSymbolTableRecord
100
AcDbDimStyleTableRecord
  2
EZ_CURVED
 70
0
  3

  4

 40
1.0
 41
0.25
 42
0.125
 43
3.75
 44
0.375
 45
0.0
 46
0.0
 47
0.0
 48
0.0
140
0.25
141
2.5
142
0.0
143
0.03937007874
144
100.0
145
0.0
146
0.5
147
0.1
148
0.0
 71
0
 72
0
 73
0
 74
0
 75
0
 76
0
 77
1
 78
12
 79
2
 90
2
170
0
171
3
172
1
173
0
174
0
175
0
176
0
177
0
178
0
179
2
271
2
272
2
273
2
274
3
275
0
276
0
277
2
278
46
279
2
280
0
281
0
282
0
283
0
284
8
285
0
286
0
288
1
289
3
340
4C
371
-2
372
-2
  0
ENDTAB
  0
TABLE
  2
BLOCK_RECORD
  5
9
330
0
100
AcDbSymbolTable
 70
15
  0
BLOCK_RECORD
  5
17
330
9
100
AcDbSymbolTableRecord
100
AcDbBlockTableRecord
  2
*Model_Space
340
1A
  0
BLOCK_RECORD
  5
1B
330
9
100
AcDbSymbolTableRecord
100
AcDbBlockTableRecord
  2
*Paper_Space
340
1E
  0
BLOCK_RECORD
  5
74
330
9
100
AcDbSymbolTableRecord
100
AcDbBlockTableRecord
  2
_ARCHTICK
340
0
  0
BLOCK_RECORD
  5
78
330
9
100
AcDbSymbolTableRecord
100
AcDbBlockTableRecord
  2
_CLOSEDFILLED
340
0
  0
BLOCK_RECORD
  5
84
330
9
100
AcDbSymbolTableRecord
100
AcDbBlockTableRecord
  2
_CLOSEDBLANK
340
0
  0
BLOCK_RECORD
  5
8D
330
9
100
AcDbSymbolTableRecord
100
AcDbBlockTableRecord
  2
SDU
340
0
  0
BLOCK_RECORD
  5
9F
330
9
100
AcDbSymbolTableRecord
100
AcDbBlockTableRecord
  2
MDU
340
0
  0
BLOCK_RECORD
  5
B5
330
9
100
AcDbSymbolTableRecord
100
AcDbBlockTableRecord
  2
LOGRADOURO
340
0
  0
BLOCK_RECORD
  5
BB
330
9
100
AcDbSymbolTableRecord
100
AcDbBlockTableRecord
  2
HCSDU
340
0
  0
BLOCK_RECORD
  5
C1
330
9
100
AcDbSymbolTableRecord
100
AcDbBlockTableRecord
  2
HCMDU
340
0
  0
BLOCK_RECORD
  5
C7
330
9
100
AcDbSymbolTableRecord
100
AcDbBlockTableRecord
  2
POSTE_CONCRETO
340
0
  0
BLOCK_RECORD
  5
CD
330
9
100
AcDbSymbolTableRecord
100
AcDbBlockTableRecord
  2
POSTE_DUPLO_T
340
0
  0
BLOCK_RECORD
  5
D3
330
9
100
AcDbSymbolTableRecord
100
AcDbBlockTableRecord
  2
Poste_concreto_aterramento
340
0
  0
BLOCK_RECORD
  5
DD
330
9
100
AcDbSymbolTableRecord
100
AcDbBlockTableRecord
  2
Poste_concreto_transf_aterr
340
0
  0
BLOCK_RECORD
  5
E9
330
9
100
AcDbSymbolTableRecord
100
AcDbBlockTableRecord
  2
FLY_TAP
340
0
  0
ENDTAB
  0
ENDSEC
  0
SECTION
  2
BLOCKS
  0
BLOCK
  5
18
330
17
100
AcDbEntity
  8
0
100
AcDbBlockBegin
  2
*Model_Space
 70
0
 10
0.0
 20
0.0
 30
0.0
  3
*Model_Space
  1

  0
ENDBLK
  5
19
330
17
100
AcDbEntity
  8
0
100
AcDbBlockEnd
  0
BLOCK
  5
1C
330
1B
100
AcDbEntity
  8
0
100
AcDbBlockBegin
  2
*Paper_Space
 70
0
 10
0.0
 20
0.0
 30
0.0
  3
*Paper_Space
  1

  0
ENDBLK
  5
1D
330
1B
100
AcDbEntity
  8
0
100
AcDbBlockEnd
  0
BLOCK
  5
75
330
74
100
AcDbEntity
  8
0
100
AcDbBlockBegin
  2
_ARCHTICK
 70
0
 10
0.0
 20
0.0
 30
0.0
  3
_ARCHTICK
  1

  0
LWPOLYLINE
  5
77
330
74
100
AcDbEntity
  8
0
  6
BYBLOCK
 62
0
100
AcDbPolyline
 90
2
 70
0
 43
0.15
 10
-0.5
 20
-0.5
 10
0.5
 20
0.5
  0
ENDBLK
  5
76
330
74
100
AcDbEntity
  8
0
100
AcDbBlockEnd
  0
BLOCK
  5
79
330
78
100
AcDbEntity
  8
0
100
AcDbBlockBegin
  2
_CLOSEDFILLED
 70
0
 10
0.0
 20
0.0
 30
0.0
  3
_CLOSEDFILLED
  1

  0
SOLID
  5
7B
330
78
100
AcDbEntity
  8
0
  6
BYBLOCK
 62
0
100
AcDbTrace
 10
-1.0
 20
0.16439898372402537
 30
0.0
 11
0.0
 21
0.0
 31
0.0
 12
-1.0
 22
-0.16439898372402537
 32
0.0
 13
-1.0
 23
-0.16439898372402537
 33
0.0
  0
ENDBLK
  5
7A
330
78
100
AcDbEntity
  8
0
100
AcDbBlockEnd
  0
BLOCK
  5
85
330
84
100
AcDbEntity
  8
0
100
AcDbBlockBegin
  2
_CLOSEDBLANK
 70
0
 10
0.0
 20
0.0
 30
0.0
  3
_CLOSEDBLANK
  1

  0
LWPOLYLINE
  5
87
330
84
100
AcDbEntity
  8
0
  6
BYBLOCK
 62
0
100
AcDbPolyline
 90
3
 70
1
 10
-1.0
 20
0.16439898372402537
 10
0.0
 20
0.0
 10
-1.0
 20
-0.16439898372402537
  0
ENDBLK
  5
86
330
84
100
AcDbEntity
  8
0
100
AcDbBlockEnd
  0
BLOCK
  5
8E
330
8D
100
AcDbEntity
  8
0
100
AcDbBlockBegin
  2
SDU
 70
2
 10
0.0
 20
0.0
 30
0.0
  3
SDU
  1

  0
ATTDEF
  5
90
330
8D
100
AcDbEntity
  8
0
 62
0
370
0
100
AcDbText
 10
-4.592425496802574e-17
 20
-0.75
 30
0.0
 40
1.5
  1

  7
Arial
 11
0.0
 21
0.0
 31
0.0
100
AcDbAttributeDefinition
  3
HP COMPLETO
  2
N_C1_3_TP_QT
 70
0
 74
2
  0
ATTDEF
  5
91
330
8D
100
AcDbEntity
  8
0
 62
0
370
0
 60
1
100
AcDbText
 10
-0.001190722094975294
 20
-3.943404928865306
 30
0.0
 40
2.0
  1

  7
Arial
 11
-0.001190722094975233
 21
-2.943404928865306
 31
0.0
100
AcDbAttributeDefinition
  3
NUMERO DA EDIFICACAO
  2
N
 70
1
 74
2
  0
ATTDEF
  5
92
330
8D
100
AcDbEntity
  8
0
 62
0
370
0
 60
1
100
AcDbText
 10
-0.001190722094975294
 20
-6.865317641672476
 30
0.0
 40
2.0
  1

  7
Arial
 11
-0.001190722094975233
 21
-5.865317641672476
 31
0.0
100
AcDbAttributeDefinition
  3
COMPLEMENTO_1 DA EDIFICAÇÃO
  2
C1
 70
1
 74
2
  0
ATTDEF
  5
93
330
8D
100
AcDbEntity
  8
0
 62
0
370
0
 60
1
100
AcDbText
 10
-0.001190722094975294
 20
-9.570449575734926
 30
0.0
 40
2.0
  1

  7
Arial
 11
-0.001190722094975233
 21
-8.570449575734926
 31
0.0
100
AcDbAttributeDefinition
  3
COMPLEMENTO_2 DA EDIFICAÇÃO
  2
C2
 70
1
 74
2
  0
ATTDEF
  5
94
330
8D
100
AcDbEntity
  8
0
 62
0
370
0
 60
1
100
AcDbText
 10
-0.001190722094975294
 20
-12.66202896756867
 30
0.0
 40
2.0
  1

  7
Arial
 11
-0.001190722094975233
 21
-11.66202896756867
 31
0.0
100
AcDbAttributeDefinition
  3
COMPLEMENTO_3 DA EDIFICAÇÃO
  2
C3
 70
1
 74
2
  0
ATTDEF
  5
95
330
8D
100
AcDbEntity
  8
0
 62
0
370
0
 60
1
100
AcDbText
 10
0.07595147020624882
 20
-15.49493186886293
 30
0.0
 40
2.0
  1

  7
Arial
 11
0.07595147020624887
 21
-14.49493186886293
 31
0.0
100
AcDbAttributeDefinition
  3
TIPO DA EDIFICAÇÃO
  2
TP
 70
1
 74
2
  0
ATTDEF
  5
96
330
8D
100
AcDbEntity
  8
0
 62
0
370
0
 60
1
100
AcDbText
 10
0.07595147020624882
 20
-18.70615993163819
 30
0.0
 40
2.0
  1
1
  7
Arial
 11
0.07595147020624887
 21
-17.70615993163819
 31
0.0
100
AcDbAttributeDefinition
  3
QUANTIDADE DE HPS
  2
QT
 70
1
 74
2
  0
ATTDEF
  5
97
330
8D
100
AcDbEntity
  8
0
 62
0
370
0
 60
1
100
AcDbText
 10
0.07595147020624882
 20
-21.74096552991495
 30
0.0
 40
2.0
  1

  7
Arial
 11
0.07595147020624887
 21
-20.74096552991495
 31
0.0
100
AcDbAttributeDefinition
  3
CODLOG
  2
CODLOG
 70
1
 74
2
  0
ATTDEF
  5
98
330
8D
100
AcDbEntity
  8
0
 62
0
370
0
 60
1
100
AcDbText
 10
0.07595147020624882
 20
-24.49703783353934
 30
0.0
 40
2.0
  1

  7
Arial
 11
0.07595147020624887
 21
-23.49703783353934
 31
0.0
100
AcDbAttributeDefinition
  3
CEP
  2
CEP
 70
1
 74
2
  0
ATTDEF
  5
99
330
8D
100
AcDbEntity
  8
0
 62
0
370
0
 60
1
100
AcDbText
 10
0.07595147020624882
 20
-27.2649286865738
 30
0.0
 40
2.0
  1

  7
Arial
 11
0.07595147020624887
 21
-26.2649286865738
 31
0.0
100
AcDbAttributeDefinition
  3
COORDENADA UTM
  2
UTM
 70
1
 74
2
  0
ATTDEF
  5
9A
330
8D
100
AcDbEntity
  8
0
 62
0
370
0
 60
1
100
AcDbText
 10
0.07595147020624882
 20
-29.99566217766301
 30
0.0
 40
2.0
  1

  7
Arial
 11
0.07595147020624887
 21
-28.99566217766301
 31
0.0
100
AcDbAttributeDefinition
  3
NOME DA NAP DE ATENDIMENTO
  2
NOME
 70
1
 74
2
  0
ATTDEF
  5
9B
330
8D
100
AcDbEntity
  8
0
 62
0
370
0
 60
1
100
AcDbText
 10
0.07595147020624882
 20
-32.65252483358483
 30
0.0
 40
2.0
  1

  7
Arial
 11
0.07595147020624887
 21
-31.65252483358483
 31
0.0
100
AcDbAttributeDefinition
  3
CLASSE SOCIAL DO HP 
  2
CLASSE_SOCIAL
 70
1
 74
2
  0
ATTDEF
  5
9C
330
8D
100
AcDbEntity
  8
0
 62
0
370
0
 60
1
100
AcDbText
 10
0.07595147020624893
 20
-38.21683643901971
 30
0.0
 40
2.0
  1

  7
Arial
 11
0.0
 21
0.0
 31
0.0
100
AcDbAttributeDefinition
  3
TIPO IMOVEL
  2
TIPOIMOVEL
 70
1
  0
ATTDEF
  5
9D
330
8D
100
AcDbEntity
  8
0
 62
0
370
0
 60
1
100
AcDbText
 10
0.07595147020624893
 20
-35.5599737830979
 30
0.0
 40
2.0
  1

  7
Arial
 11
0.0
 21
0.0
 31
0.0
100
AcDbAttributeDefinition
  3
ID
  2
ID
 70
1
  0
ATTDEF
  5
9E
330
8D
100
AcDbEntity
  8
0
 62
0
370
0
 60
1
100
AcDbText
 10
0.07595147020624882
 20
-41.4777406608246
 30
0.0
 40
2.0
  1

  7
Arial
 11
0.07595147020624887
 21
-40.4777406608246
 31
0.0
100
AcDbAttributeDefinition
  3
CODGED
  2
CODGED
 70
1
 74
2
  0
ENDBLK
  5
8F
330
8D
100
AcDbEntity
  8
0
100
AcDbBlockEnd
  0
BLOCK
  5
A0
330
9F
100
AcDbEntity
  8
0
100
AcDbBlockBegin
  2
MDU
 70
2
 10
0.0
 20
0.0
 30
0.0
  3
MDU
  1

  0
ARC
  5
A2
330
9F
100
AcDbEntity
  8
0
 62
0
100
AcDbCircle
 10
-1.13879357080542
 20
1.501510461559519
 30
0.0
 40
4.500112015814985
100
AcDbArc
 50
269.9992270880563
 51
270.0694608030497
  0
TEXT
  5
A3
330
9F
100
AcDbEntity
  8
0
 62
0
100
AcDbText
 10
-3.476502269709458
 20
1.468068226007745
 30
0.0
 40
1.1
  1
Nº
  7
Arial
 11
0.0
 21
0.0
 31
0.0
100
AcDbText
  0
TEXT
  5
A4
330
9F
100
AcDbEntity
  8
0
 62
0
100
AcDbText
 10
-3.538681896115024
 20
-0.6480169764254242
 30
0.0
 40
1.1
  1
HP
  7
Arial
 11
0.0
 21
0.0
 31
0.0
100
AcDbText
  0
TEXT
  5
A5
330
9F
100
AcDbEntity
  8
0
 62
0
100
AcDbText
 10
0.2585307189411719
 20
-0.6480169764254242
 30
0.0
 40
1.1
  1
AND
  7
Arial
 11
0.0
 21
0.0
 31
0.0
100
AcDbText
  0
ATTDEF
  5
A6
330
9F
100
AcDbEntity
  8
0
 62
7
100
AcDbText
 10
-1.577169549477519
 20
1.173149294051726
 30
0.0
 40
1.4
  1

  7
Arial
 11
0.0
 21
0.0
 31
0.0
100
AcDbAttributeDefinition
  3
NUMERO DA EDIFICACAO
  2
NUMERO
 70
0
  0
ATTDEF
  5
A7
330
9F
100
AcDbEntity
  8
0
 62
7
100
AcDbText
 10
-3.21645972064046
 20
-2.526717700029764
 30
0.0
 40
1.4
  1

  7
Arial
 11
0.0
 21
0.0
 31
0.0
100
AcDbAttributeDefinition
  3
TOTAL DE HP
  2
HP_TOTAL
 70
0
  0
ATTDEF
  5
A8
330
9F
100
AcDbEntity
  8
0
 62
7
100
AcDbText
 10
0.4233730802786493
 20
-2.460397077164988
 30
0.0
 40
1.4
  1

  7
Arial
 11
0.0
 21
0.0
 31
0.0
100
AcDbAttributeDefinition
  3
TOTAL DE ANDARES
  2
QTD_ANDARES
 70
0
  0
ATTDEF
  5
A9
330
9F
100
AcDbEntity
  8
0
 62
7
100
AcDbText
 10
-3.821759390382223
 20
-4.517292474952416
 30
0.0
 40
1.0
  1

  7
Arial
 11
0.0
 21
0.0
 31
0.0
100
AcDbAttributeDefinition
  3
BLOCO
  2
BLOCO
 70
0
  0
ATTDEF
  5
AA
330
9F
100
AcDbEntity
  8
0
 62
7
 60
1
100
AcDbText
 10
-3.821759390382221
 20
-7.183559669684767
 30
0.0
 40
1.0
  1

  7
Arial
 11
0.0
 21
0.0
 31
0.0
100
AcDbAttributeDefinition
  3
NOME DO ESTABELECIMENTO
  2
ESTABELECIMENTO
 70
1
  0
ATTDEF
  5
AB
330
9F
100
AcDbEntity
  8
0
 62
7
 60
1
100
AcDbText
 10
-3.821759390382222
 20
-8.584200625964328
 30
0.0
 40
1.0
  1

  7
Arial
 11
0.0
 21
0.0
 31
0.0
100
AcDbAttributeDefinition
  3
CODIGO DO LOGRADOURO
  2
CODLOG
 70
1
  0
ATTDEF
  5
AC
330
9F
100
AcDbEntity
  8
0
 62
7
 60
1
100
AcDbText
 10
-3.821759390382222
 20
-10.05199806515152
 30
0.0
 40
1.0
  1

  7
Arial
 11
0.0
 21
0.0
 31
0.0
100
AcDbAttributeDefinition
  3
CEP
  2
CEP
 70
1
  0
ATTDEF
  5
AD
330
9F
100
AcDbEntity
  8
0
 62
7
 60
1
100
AcDbText
 10
-3.821759390382222
 20
-11.47576754092098
 30
0.0
 40
1.0
  1

  7
Arial
 11
0.0
 21
0.0
 31
0.0
100
AcDbAttributeDefinition
  3
COORDENADA UTM
  2
UTM
 70
1
  0
ATTDEF
  5
AE
330
9F
100
AcDbEntity
  8
0
 62
7
 60
1
100
AcDbText
 10
-3.862848717004876
 20
-12.78687230886227
 30
0.0
 40
1.0
  1

  7
Arial
 11
0.0
 21
0.0
 31
0.0
100
AcDbAttributeDefinition
  3
NOME DA NAP DE ATENDIMENTO
  2
NOME
 70
1
  0
ATTDEF
  5
AF
330
9F
100
AcDbEntity
  8
0
 62
7
 60
1
100
AcDbText
 10
-3.862848717004876
 20
-14.20892484261939
 30
0.0
 40
1.0
  1

  7
Arial
 11
0.0
 21
0.0
 31
0.0
100
AcDbAttributeDefinition
  3
CLASSE SOCIAL DO HP
  2
CLASSE_SOCIAL
 70
1
  0
ATTDEF
  5
B0
330
9F
100
AcDbEntity
  8
0
 62
7
 60
1
100
AcDbText
 10
-3.862848717004876
 20
-15.67042315650112
 30
0.0
 40
1.0
  1

  7
Arial
 11
0.0
 21
0.0
 31
0.0
100
AcDbAttributeDefinition
  3
CODGED:
  2
CODGED
 70
1
  0
ATTDEF
  5
B1
330
9F
100
AcDbEntity
  8
0
 62
7
 60
1
100
AcDbText
 10
-3.862848717004876
 20
-5.891099746659977
 30
0.0
 40
1.0
  1

  7
Arial
 11
0.0
 21
0.0
 31
0.0
100
AcDbAttributeDefinition
  3
ID:
  2
ID
 70
1
  0
LINE
  5
B2
330
9F
100
AcDbEntity
  8
0
 62
0
100
AcDbLine
 10
-3.852107907132423
 20
0.7271093885392301
 30
0.0
 11
3.852112179131804
 21
0.7221156241397635
 31
0.0
  0
LINE
  5
B3
330
9F
100
AcDbEntity
  8
0
 62
0
100
AcDbLine
 10
-0.09644866357482096
 20
-2.996401290318335
 30
0.0
 11
-0.1019021005595016
 21
0.7268094644859784
 31
0.0
  0
LWPOLYLINE
  5
B4
330
9F
100
AcDbEntity
  8
0
 62
0
100
AcDbPolyline
 90
8
 70
1
 10
-2.852224195386926
 20
3.000798510478472
 10
2.852224194943997
 20
2.996404596979477
 42
-0.414213562373095
 10
3.852224194943997
 20
1.996404596979477
 10
3.852224194943997
 20
-2.00079851001247
 42
-0.4142135623304735
 10
2.852224195089516
 20
-3.00079851001247
 10
-2.852224195241407
 20
-2.996404597444797
 42
-0.4142135624157166
 10
-3.852224195386926
 20
-1.996404597444797
 10
-3.852224195386926
 20
2.000798510478472
 42
-0.414213562373095
  0
ENDBLK
  5
A1
330
9F
100
AcDbEntity
  8
0
100
AcDbBlockEnd
  0
BLOCK
  5
B6
330
B5
100
AcDbEntity
  8
0
100
AcDbBlockBegin
  2
LOGRADOURO
 70
2
 10
0.0
 20
0.0
 30
0.0
  3
LOGRADOURO
  1

  0
ATTDEF
  5
B8
330
B5
100
AcDbEntity
  8
0
 62
0
100
AcDbText
 10
0.0
 20
0.0
 30
0.0
 40
2.0
  1

  7
Arial
 11
0.0
 21
0.0
 31
0.0
100
AcDbAttributeDefinition
  3
NOME DO LOGRADOURO
  2
LOGRADOURO
 70
0
  0
ATTDEF
  5
B9
330
B5
100
AcDbEntity
  8
0
 62
0
 60
1
100
AcDbText
 10
-0.1543026999637505
 20
-3.425914689468186
 30
0.0
 40
1.0
  1

  7
Arial
 11
0.0
 21
0.0
 31
0.0
100
AcDbAttributeDefinition
  3
CODIGO DO LOGRADOURO
  2
CODLOG
 70
1
  0
ATTDEF
  5
BA
330
B5
100
AcDbEntity
  8
0
 62
0
 60
1
100
AcDbText
 10
-0.1543026999637505
 20
-5.075359478655514
 30
0.0
 40
1.0
  1

  7
Arial
 11
0.0
 21
0.0
 31
0.0
100
AcDbAttributeDefinition
  3
CEP
  2
CEP
 70
1
  0
ENDBLK
  5
B7
330
B5
100
AcDbEntity
  8
0
100
AcDbBlockEnd
  0
BLOCK
  5
BC
330
BB
100
AcDbEntity
  8
0
100
AcDbBlockBegin
  2
HCSDU
 70
2
 10
0.0
 20
0.0
 30
0.0
  3
HCSDU
  1

  0
CIRCLE
  5
BE
330
BB
100
AcDbEntity
  8
0
100
AcDbCircle
 10
0.0
 20
0.0
 30
0.0
 40
1.5
  0
ATTDEF
  5
BF
330
BB
100
AcDbEntity
  8
0
 62
7
100
AcDbText
 10
-4.592425496802574e-17
 20
-0.75
 30
0.0
 40
1.5
  1

  7
Arial
 72
1
 11
0.0
 21
0.0
 31
0.0
100
AcDbAttributeDefinition
  3
QUANTIDADE DE SDU
  2
QTD_SDU
 70
0
 74
2
  0
ATTDEF
  5
C0
330
BB
100
AcDbEntity
  8
0
 60
1
100
AcDbText
 10
-0.004191308164990915
 20
-3.533574604854849
 30
0.0
 40
1.199999999999999
  1

  7
Arial
 72
1
 11
-0.004191308164990915
 21
-3.533574604854849
 31
0.0
100
AcDbAttributeDefinition
  3
COORDENADA UTM
  2
UTM
 70
1
  0
ENDBLK
  5
BD
330
BB
100
AcDbEntity
  8
0
100
AcDbBlockEnd
  0
BLOCK
  5
C2
330
C1
100
AcDbEntity
  8
0
100
AcDbBlockBegin
  2
HCMDU
 70
2
 10
0.0
 20
0.0
 30
0.0
  3
HCMDU
  1

  0
LWPOLYLINE
  5
C4
330
C1
100
AcDbEntity
  8
0
100
AcDbPolyline
 90
4
 70
1
 10
-1.5
 20
1.5
 10
1.5
 20
1.5
 10
1.5
 20
-1.5
 10
-1.5
 20
-1.5
  0
ATTDEF
  5
C5
330
C1
100
AcDbEntity
  8
0
 62
7
100
AcDbText
 10
-4.592425496802574e-17
 20
-0.75
 30
0.0
 40
1.5
  1

  7
Arial
 72
1
 11
0.0
 21
0.0
 31
0.0
100
AcDbAttributeDefinition
  3
QUANTIDADE DE MDU
  2
QTD_MDU
 70
0
 74
2
  0
ATTDEF
  5
C6
330
C1
100
AcDbEntity
  8
0
 60
1
100
AcDbText
 10
-0.004191308164536167
 20
-3.342740797357969
 30
0.0
 40
1.199999999999999
  1

  7
Arial
 72
1
 11
-0.004191308164536167
 21
-3.342740797357969
 31
0.0
100
AcDbAttributeDefinition
  3
COORDENADA UTM
  2
UTM
 70
1
  0
ENDBLK
  5
C3
330
C1
100
AcDbEntity
  8
0
100
AcDbBlockEnd
  0
BLOCK
  5
C8
330
C7
100
AcDbEntity
  8
0
100
AcDbBlockBegin
  2
POSTE_CONCRETO
 70
2
 10
0.0
 20
0.0
 30
0.0
  3
POSTE_CONCRETO
  1

  0
CIRCLE
  5
CA
330
C7
100
AcDbEntity
  8
0
370
0
100
AcDbCircle
 10
0.0
 20
0.0
 30
0.0
 40
0.75
  0
CIRCLE
  5
CB
330
C7
100
AcDbEntity
  8
0
370
0
100
AcDbCircle
 10
0.0
 20
0.0
 30
0.0
 40
0.35
  0
ATTDEF
  5
CC
330
C7
100
AcDbEntity
  8
0
370
0
 60
1
100
AcDbText
 10
-9.184850993605149e-18
 20
-1.214238169024953
 30
0.0
 40
0.3
  1

  7
Romans
 72
1
 11
0.0
 21
-1.064238169024953
 31
0.0
100
AcDbAttributeDefinition
  3
COORDENADA UTM
  2
UTM
 70
1
 74
2
  0
ENDBLK
  5
C9
330
C7
100
AcDbEntity
  8
0
100
AcDbBlockEnd
  0
BLOCK
  5
CE
330
CD
100
AcDbEntity
  8
0
100
AcDbBlockBegin
  2
POSTE_DUPLO_T
 70
2
 10
0.0
 20
0.0
 30
0.0
  3
POSTE_DUPLO_T
  1

  0
ATTDEF
  5
D0
330
CD
100
AcDbEntity
  8
0
 60
1
100
AcDbText
 10
-6.888638245203862e-18
 20
-1.142480072119961
 30
0.0
 40
0.225
  1

  7
Romans
 72
1
 11
0.0
 21
-1.029980072119961
 31
0.0
100
AcDbAttributeDefinition
  3
COORDENADA UTM
  2
UTM
 70
1
 74
2
  0
CIRCLE
  5
D1
330
CD
100
AcDbEntity
  8
0
370
0
100
AcDbCircle
 10
0.0
 20
0.0
 30
0.0
 40
0.75
  0
TEXT
  5
D2
330
CD
100
AcDbEntity
  8
0
100
AcDbText
 10
-0.5433824273804809
 20
-0.520425510433192
 30
0.0
 40
1.047460185171157
  1
H
  7
Arial
 72
1
 11
-0.01500807067238341
 21
0.003304582152386715
 31
0.0
100
AcDbText
 73
2
  0
ENDBLK
  5
CF
330
CD
100
AcDbEntity
  8
0
100
AcDbBlockEnd
  0
BLOCK
  5
D4
330
D3
100
AcDbEntity
  8
0
100
AcDbBlockBegin
  2
Poste_concreto_aterramento
 70
2
 10
0.0
 20
0.0
 30
0.0
  3
Poste_concreto_aterramento
  1

  0
LINE
  5
D6
330
D3
100
AcDbEntity
  8
0
370
0
100
AcDbLine
 10
0.4955950505029705
 20
-1.163526501304048
 30
0.0
 11
-0.4955950504806879
 21
-1.163526501307231
 31
0.0
  0
LINE
  5
D7
330
D3
100
AcDbEntity
  8
0
370
0
100
AcDbLine
 10
0.707992929292595
 20
-0.9165806108281027
 30
0.0
 11
-0.7079929292693571
 21
-0.9165806108293761
 31
0.0
  0
LINE
  5
D8
330
D3
100
AcDbEntity
  8
0
370
0
100
AcDbLine
 10
0.3083702536374858
 20
-1.410472392271483
 30
0.0
 11
-0.3083702536330293
 21
-1.410472392272756
 31
0.0
  0
LINE
  5
D9
330
D3
100
AcDbEntity
  8
0
370
0
100
AcDbLine
 10
0.0
 20
0.0
 30
0.0
 11
-6.366499999999999e-13
 21
-0.9165806108261927
 31
0.0
  0
ATTDEF
  5
DA
330
D3
100
AcDbEntity
  8
0
 60
1
100
AcDbText
 10
-6.888638245203862e-18
 20
-1.778007235261103
 30
0.0
 40
0.225
  1

  7
Romans
 72
1
 11
0.0
 21
-1.665507235261103
 31
0.0
100
AcDbAttributeDefinition
  3
COORDENADA UTM
  2
UTM
 70
1
 74
2
  0
CIRCLE
  5
DB
330
D3
100
AcDbEntity
  8
0
370
0
100
AcDbCircle
 10
0.0
 20
0.0
 30
0.0
 40
0.75
  0
CIRCLE
  5
DC
330
D3
100
AcDbEntity
  8
0
370
0
100
AcDbCircle
 10
0.0
 20
0.0
 30
0.0
 40
0.35
  0
ENDBLK
  5
D5
330
D3
100
AcDbEntity
  8
0
100
AcDbBlockEnd
  0
BLOCK
  5
DE
330
DD
100
AcDbEntity
  8
0
100
AcDbBlockBegin
  2
Poste_concreto_transf_aterr
 70
2
 10
0.0
 20
0.0
 30
0.0
  3
Poste_concreto_transf_aterr
  1

  0
LINE
  5
E0
330
DD
100
AcDbEntity
  8
0
370
0
100
AcDbLine
 10
-0.7679505947886353
 20
0.7679505947319738
 30
0.0
 11
0.767950594790545
 21
-0.7679505947357936
 31
0.0
  0
LINE
  5
E1
330
DD
100
AcDbEntity
  8
0
370
0
100
AcDbLine
 10
-0.7679505947848154
 20
-0.767950594737067
 30
0.0
 11
0.7679505947886353
 21
0.7679505947338834
 31
0.0
  0
LINE
  5
E2
330
DD
100
AcDbEntity
  8
0
370
0
100
AcDbLine
 10
0.4955950504899192
 20
-1.210111894659779
 30
0.0
 11
-0.4955950504937391
 21
-1.210111894661052
 31
0.0
  0
LINE
  5
E3
330
DD
100
AcDbEntity
  8
0
370
0
100
AcDbLine
 10
0.7079929292754059
 20
-0.9631660036961631
 30
0.0
 11
-0.7079929292862286
 21
-0.9631660036974365
 31
0.0
  0
LINE
  5
E4
330
DD
100
AcDbEntity
  8
0
370
0
100
AcDbLine
 10
0.3083702536409874
 20
-1.457057785372556
 30
0.0
 11
-0.308370253628891
 21
-1.45705778537383
 31
0.0
  0
ATTDEF
  5
E5
330
DD
100
AcDbEntity
  8
0
 60
1
100
AcDbText
 10
-6.888638245203862e-18
 20
-1.905017432994017
 30
0.0
 40
0.225
  1

  7
Romans
 72
1
 11
0.0
 21
-1.792517432994017
 31
0.0
100
AcDbAttributeDefinition
  3
COORDENADA UTM
  2
UTM
 70
1
 74
2
  0
LINE
  5
E6
330
DD
100
AcDbEntity
  8
0
370
0
100
AcDbLine
 10
1.273292582482099e-12
 20
-2.228417450567122e-12
 30
0.0
 11
-5.411338044325475e-12
 21
-0.9631660036967997
 31
0.0
  0
CIRCLE
  5
E7
330
DD
100
AcDbEntity
  8
0
370
0
100
AcDbCircle
 10
0.0
 20
0.0
 30
0.0
 40
0.75
  0
CIRCLE
  5
E8
330
DD
100
AcDbEntity
  8
0
370
0
100
AcDbCircle
 10
0.0
 20
0.0
 30
0.0
 40
0.35
  0
ENDBLK
  5
DF
330
DD
100
AcDbEntity
  8
0
100
AcDbBlockEnd
  0
BLOCK
  5
EA
330
E9
100
AcDbEntity
  8
0
100
AcDbBlockBegin
  2
FLY_TAP
 70
0
 10
0.0
 20
0.0
 30
0.0
  3
FLY_TAP
  1

  0
CIRCLE
  5
EC
330
E9
100
AcDbEntity
  8
0
370
0
100
AcDbCircle
 10
0.0
 20
2.775557561562891e-17
 30
0.0
 40
0.375
  0
HATCH
  5
ED
330
E9
100
AcDbEntity
  8
0
100
AcDbHatch
 10
0.0
 20
0.0
 30
0.0
210
0.0
220
0.0
230
1.0
  2
SOLID
 70
1
 71
0
 91
1
 92
7
 72
1
 73
1
 93
2
 10
-0.375
 20
1.387778780781446e-17
 42
1.0
 10
0.375
 20
1.387778780781446e-17
 42
1.0
 97
0
 75
1
 76
1
 47
0.003192182410211099
 98
1
 10
-0.1892265921720764
 20
0.2162703594899291
  0
ENDBLK
  5
EB
330
E9
100
AcDbEntity
  8
0
100
AcDbBlockEnd
  0
ENDSEC
  0
SECTION
  2
ENTITIES
  0
ENDSEC
  0
SECTION
  2
OBJECTS
  0
DICTIONARY
  5
A
330
0
100
AcDbDictionary
281
1
  3
ACAD_COLOR
350
B
  3
ACAD_GROUP
350
C
  3
ACAD_LAYOUT
350
D
  3
ACAD_MATERIAL
350
E
  3
ACAD_MLEADERSTYLE
350
F
  3
ACAD_MLINESTYLE
350
10
  3
ACAD_PLOTSETTINGS
350
11
  3
ACAD_PLOTSTYLENAME
350
12
  3
ACAD_SCALELIST
350
14
  3
ACAD_TABLESTYLE
350
15
  3
ACAD_VISUALSTYLE
350
16
  3
EZDXF_META
350
2D
  0
DICTIONARY
  5
B
330
A
100
AcDbDictionary
281
1
  0
DICTIONARY
  5
C
330
A
100
AcDbDictionary
281
1
  0
DICTIONARY
  5
D
330
A
100
AcDbDictionary
281
1
  3
Model
350
1A
  3
Layout1
350
1E
  0
DICTIONARY
  5
E
330
A
100
AcDbDictionary
281
1
  3
ByBlock
350
1F
  3
ByLayer
350
20
  3
Global
350
21
  0
DICTIONARY
  5
F
330
A
100
AcDbDictionary
281
1
  3
Standard
350
2C
  0
DICTIONARY
  5
10
330
A
100
AcDbDictionary
281
1
  3
Standard
350
22
  0
DICTIONARY
  5
11
330
A
100
AcDbDictionary
281
1
  0
ACDBDICTIONARYWDFLT
  5
12
330
A
100
AcDbDictionary
281
1
  3
Normal
350
13
100
AcDbDictionaryWithDefault
340
13
  0
ACDBPLACEHOLDER
  5
13
330
12
  0
DICTIONARY
  5
14
330
A
100
AcDbDictionary
281
1
  0
DICTIONARY
  5
15
330
A
100
AcDbDictionary
281
1
  0
DICTIONARY
  5
16
330
A
100
AcDbDictionary
281
1
  3
2dWireframe
350
5A
  3
Basic
350
5B
  3
Brighten
350
5C
  3
ColorChange
350
5D
  3
Conceptual
350
5E
  3
Dim
350
5F
  3
EdgeColorOff
350
60
  3
Facepattern
350
61
  3
Flat
350
62
  3
FlatWithEdges
350
63
  3
Gouraud
350
64
  3
GouraudWithEdges
350
65
  3
Hidden
350
66
  3
JitterOff
350
67
  3
Linepattern
350
68
  3
Modeling
350
69
  3
OverhangOff
350
6A
  3
Realistic
350
6B
  3
Shaded
350
6C
  3
Shaded with edges
350
6D
  3
Shades of Gray
350
6E
  3
Sketchy
350
6F
  3
Thicken
350
70
  3
Wireframe
350
71
  3
X-Ray
350
72
  0
LAYOUT
  5
1A
330
D
100
AcDbPlotSettings
  1

  4
A3
  6

 40
7.5
 41
20.0
 42
7.5
 43
20.0
 44
420.0
 45
297.0
 46
0.0
 47
0.0
 48
0.0
 49
0.0
140
0.0
141
0.0
142
1.0
143
1.0
 70
1024
 72
1
 73
0
 74
5
  7

 75
16
 76
0
 77
2
 78
300
147
1.0
148
0.0
149
0.0
100
AcDbLayout
  1
Model
 70
1
 71
0
 10
0.0
 20
0.0
 11
420.0
 21
297.0
 12
0.0
 22
0.0
 32
0.0
 14
1e+20
 24
1e+20
 34
1e+20
 15
-1e+20
 25
-1e+20
 35
-1e+20
146
0.0
 13
0.0
 23
0.0
 33
0.0
 16
1.0
 26
0.0
 36
0.0
 17
0.0
 27
1.0
 37
0.0
 76
1
330
17
  0
LAYOUT
  5
1E
330
D
100
AcDbPlotSettings
  1

  4
A3
  6

 40
7.5
 41
20.0
 42
7.5
 43
20.0
 44
420.0
 45
297.0
 46
0.0
 47
0.0
 48
0.0
 49
0.0
140
0.0
141
0.0
142
1.0
143
1.0
 70
0
 72
1
 73
0
 74
5
  7

 75
16
 76
0
 77
2
 78
300
147
1.0
148
0.0
149
0.0
100
AcDbLayout
  1
Layout1
 70
1
 71
1
 10
0.0
 20
0.0
 11
420.0
 21
297.0
 12
0.0
 22
0.0
 32
0.0
 14
1e+20
 24
1e+20
 34
1e+20
 15
-1e+20
 25
-1e+20
 35
-1e+20
146
0.0
 13
0.0
 23
0.0
 33
0.0
 16
1.0
 26
0.0
 36
0.0
 17
0.0
 27
1.0
 37
0.0
 76
1
330
1B
  0
MATERIAL
  5
1F
102
{ACAD_REACTORS
330
E
102
}
330
E
100
AcDbMaterial
  1
ByBlock
  2

 70
0
 40
1.0
 71
1
 41
1.0
 91
-1023410177
 42
1.0
 72
1
  3

 73
1
 74
1
 75
1
 44
0.5
 73
0
 45
1.0
 46
1.0
 77
1
  4

 78
1
 79
1
170
1
 48
1.0
171
1
  6

172
1
173
1
174
1
140
1.0
141
1.0
175
1
  7

176
1
177
1
178
1
143
1.0
179
1
  8

270
1
271
1
272
1
145
1.0
146
1.0
273
1
  9

274
1
275
1
276
1
 42
1.0
 72
1
  3

 73
1
 74
1
 75
1
 94
63
  0
MATERIAL
  5
20
102
{ACAD_REACTORS
330
E
102
}
330
E
100
AcDbMaterial
  1
ByLayer
  2

 70
0
 40
1.0
 71
1
 41
1.0
 91
-1023410177
 42
1.0
 72
1
  3

 73
1
 74
1
 75
1
 44
0.5
 73
0
 45
1.0
 46
1.0
 77
1
  4

 78
1
 79
1
170
1
 48
1.0
171
1
  6

172
1
173
1
174
1
140
1.0
141
1.0
175
1
  7

176
1
177
1
178
1
143
1.0
179
1
  8

270
1
271
1
272
1
145
1.0
146
1.0
273
1
  9

274
1
275
1
276
1
 42
1.0
 72
1
  3

 73
1
 74
1
 75
1
 94
63
  0
MATERIAL
  5
21
102
{ACAD_REACTORS
330
E
102
}
330
E
100
AcDbMaterial
  1
Global
  2

 70
0
 40
1.0
 71
1
 41
1.0
 91
-1023410177
 42
1.0
 72
1
  3

 73
1
 74
1
 75
1
 44
0.5
 73
0
 45
1.0
 46
1.0
 77
1
  4

 78
1
 79
1
170
1
 48
1.0
171
1
  6

172
1
173
1
174
1
140
1.0
141
1.0
175
1
  7

176
1
177
1
178
1
143
1.0
179
1
  8

270
1
271
1
272
1
145
1.0
146
1.0
273
1
  9

274
1
275
1
276
1
 42
1.0
 72
1
  3

 73
1
 74
1
 75
1
 94
63
  0
MLINESTYLE
  5
22
102
{ACAD_REACTORS
330
10
102
}
330
10
100
AcDbMlineStyle
  2
Standard
 70
0
  3

 62
256
 51
90.0
 52
90.0
 71
2
 49
0.5
 62
256
  6
BYLAYER
 49
-0.5
 62
256
  6
BYLAYER
  0
MLEADERSTYLE
  5
2C
102
{ACAD_REACTORS
330
F
102
}
330
F
100
AcDbMLeaderStyle
179
2
170
2
171
1
172
0
 90
2
 40
0.0
 41
0.0
173
1
 91
-1056964608
 92
-2
290
1
 42
2.0
291
1
 43
8.0
  3
Standard
 44
4.0
300

342
29
174
1
175
1
176
0
178
1
 93
-1056964608
 45
4.0
292
0
297
0
 46
4.0
 94
-1056964608
 47
1.0
 49
1.0
140
1.0
294
1
141
0.0
177
0
142
1.0
295
0
296
0
143
3.75
271
0
272
9
273
9
  0
DICTIONARY
  5
2D
330
A
100
AcDbDictionary
280
1
281
1
  3
CREATED_BY_EZDXF
350
2E
  3
WRITTEN_BY_EZDXF
350
105
  0
DICTIONARYVAR
  5
2E
330
2D
100
DictionaryVariables
280
0
  1
1.4.4 @ 2026-08-18T21:46:54.040673+00:00
  0
VISUALSTYLE
  5
5A
102
{ACAD_REACTORS
330
16
102
}
330
16
100
AcDbVisualStyle
  2
2dWireframe
 70
4
 90
0
 40
0.6
 62
7
290
0
291
0
  0
VISUALSTYLE
  5
5B
102
{ACAD_REACTORS
330
16
102
}
330
16
100
AcDbVisualStyle
  2
Basic
 70
7
 90
1
 40
0.6
 62
7
290
0
291
1
  0
VISUALSTYLE
  5
5C
102
{ACAD_REACTORS
330
16
102
}
330
16
100
AcDbVisualStyle
  2
Brighten
 70
12
 90
2
 40
0.6
 62
7
290
0
291
1
  0
VISUALSTYLE
  5
5D
102
{ACAD_REACTORS
330
16
102
}
330
16
100
AcDbVisualStyle
  2
ColorChange
 70
16
 90
2
 40
0.6
 62
8
290
0
291
1
  0
VISUALSTYLE
  5
5E
102
{ACAD_REACTORS
330
16
102
}
330
16
100
AcDbVisualStyle
  2
Conceptual
 70
9
 90
3
 40
0.6
 62
7
290
0
291
0
  0
VISUALSTYLE
  5
5F
102
{ACAD_REACTORS
330
16
102
}
330
16
100
AcDbVisualStyle
  2
Dim
 70
11
 90
2
 40
0.6
 62
7
290
0
291
1
  0
VISUALSTYLE
  5
60
102
{ACAD_REACTORS
330
16
102
}
330
16
100
AcDbVisualStyle
  2
EdgeColorOff
 70
22
 90
2
 40
0.6
 62
7
290
0
291
1
  0
VISUALSTYLE
  5
61
102
{ACAD_REACTORS
330
16
102
}
330
16
100
AcDbVisualStyle
  2
Facepattern
 70
15
 90
2
 40
0.6
 62
7
290
0
291
1
  0
VISUALSTYLE
  5
62
102
{ACAD_REACTORS
330
16
102
}
330
16
100
AcDbVisualStyle
  2
Flat
 70
0
 90
2
 40
0.6
 62
7
290
0
291
1
  0
VISUALSTYLE
  5
63
102
{ACAD_REACTORS
330
16
102
}
330
16
100
AcDbVisualStyle
  2
FlatWithEdges
 70
1
 90
2
 40
0.6
 62
7
290
0
291
1
  0
VISUALSTYLE
  5
64
102
{ACAD_REACTORS
330
16
102
}
330
16
100
AcDbVisualStyle
  2
Gouraud
 70
2
 90
2
 40
0.6
 62
7
290
0
291
1
  0
VISUALSTYLE
  5
65
102
{ACAD_REACTORS
330
16
102
}
330
16
100
AcDbVisualStyle
  2
GouraudWithEdges
 70
3
 90
2
 40
0.6
 62
7
290
0
291
1
  0
VISUALSTYLE
  5
66
102
{ACAD_REACTORS
330
16
102
}
330
16
100
AcDbVisualStyle
  2
Hidden
 70
6
 90
1
 40
0.6
 62
7
290
0
291
0
  0
VISUALSTYLE
  5
67
102
{ACAD_REACTORS
330
16
102
}
330
16
100
AcDbVisualStyle
  2
JitterOff
 70
20
 90
2
 40
0.6
 62
7
290
0
291
1
  0
VISUALSTYLE
  5
68
102
{ACAD_REACTORS
330
16
102
}
330
16
100
AcDbVisualStyle
  2
Linepattern
 70
14
 90
2
 40
0.6
 62
7
290
0
291
1
  0
VISUALSTYLE
  5
69
102
{ACAD_REACTORS
330
16
102
}
330
16
100
AcDbVisualStyle
  2
Modeling
 70
10
 90
2
 40
0.6
 62
7
290
0
291
0
  0
VISUALSTYLE
  5
6A
102
{ACAD_REACTORS
330
16
102
}
330
16
100
AcDbVisualStyle
  2
OverhangOff
 70
21
 90
2
 40
0.6
 62
7
290
0
291
1
  0
VISUALSTYLE
  5
6B
102
{ACAD_REACTORS
330
16
102
}
330
16
100
AcDbVisualStyle
  2
Realistic
 70
8
 90
2
 40
0.6
 62
7
290
0
291
0
  0
VISUALSTYLE
  5
6C
102
{ACAD_REACTORS
330
16
102
}
330
16
100
AcDbVisualStyle
  2
Shaded
 70
27
 90
2
 40
0.6
 62
7
290
0
291
0
  0
VISUALSTYLE
  5
6D
102
{ACAD_REACTORS
330
16
102
}
330
16
100
AcDbVisualStyle
  2
Shaded with edges
 70
26
 90
2
 40
0.6
 62
7
290
0
291
0
  0
VISUALSTYLE
  5
6E
102
{ACAD_REACTORS
330
16
102
}
330
16
100
AcDbVisualStyle
  2
Shades of Gray
 70
23
 90
2
 40
0.6
 62
7
290
0
291
0
  0
VISUALSTYLE
  5
6F
102
{ACAD_REACTORS
330
16
102
}
330
16
100
AcDbVisualStyle
  2
Sketchy
 70
24
 90
1
 40
0.6
 62
7
290
0
291
0
  0
VISUALSTYLE
  5
70
102
{ACAD_REACTORS
330
16
102
}
330
16
100
AcDbVisualStyle
  2
Thicken
 70
13
 90
2
 40
0.6
 62
7
290
0
291
1
  0
VISUALSTYLE
  5
71
102
{ACAD_REACTORS
330
16
102
}
330
16
100
AcDbVisualStyle
  2
Wireframe
 70
5
 90
0
 40
0.6
 62
7
290
0
291
0
  0
VISUALSTYLE
  5
72
102
{ACAD_REACTORS
330
16
102
}
330
16
100
AcDbVisualStyle
  2
X-Ray
 70
25
 90
2
 40
0.5
 62
7
290
0
291
0
  0
DICTIONARYVAR
  5
105
330
2D
100
DictionaryVariables
280
0
  1
1.4.4 @ 2026-08-18T21:46:54.050681+00:00
  0
ENDSEC
  0
EOF
